<?xml version="1.0" encoding="UTF-8" standalone="no"?>
<svg
   version="1.1"
   width="1500"
   height="1500"
   viewBox="0 0 1500 1500"
   id="svg11"
   sodipodi:docname="logo-black.svg"
   inkscape:version="1.3.2 (091e20e, 2023-11-25)"
   xmlns:inkscape="http://www.inkscape.org/namespaces/inkscape"
   xmlns:sodipodi="http://sodipodi.sourceforge.net/DTD/sodipodi-0.dtd"
   xmlns="http://www.w3.org/2000/svg"
   xmlns:svg="http://www.w3.org/2000/svg">
  <defs
     id="defs11" />
  <sodipodi:namedview
     id="namedview11"
     pagecolor="#505050"
     bordercolor="#eeeeee"
     borderopacity="1"
     inkscape:showpageshadow="0"
     inkscape:pageopacity="0"
     inkscape:pagecheckerboard="0"
     inkscape:deskcolor="#505050"
     inkscape:zoom="0.18840903"
     inkscape:cx="331.72508"
     inkscape:cy="862.4852"
     inkscape:window-width="1440"
     inkscape:window-height="900"
     inkscape:window-x="0"
     inkscape:window-y="0"
     inkscape:window-maximized="0"
     inkscape:current-layer="svg11" />
  <rect
     width="1156.7797"
     height="1061.4407"
     fill="#ffffff"
     id="rect1"
     x="12.711864"
     y="425.84744"
     style="stroke-width:2.13900025;stroke-dasharray:none" />
  <g
     transform="matrix(0.9398535,0,0,0.9752071,20.51482,502.17588)"
     id="g10">
    <svg
       viewBox="0 0 396 247"
       data-background-color="#111111"
       preserveAspectRatio="xMidYMid"
       height="935"
       width="1500"
       version="1.1"
       id="svg10">
      <g
         id="tight-bounds"
         transform="translate(0.24,-0.1)">
        <svg
           viewBox="0 0 395.52 247.2"
           height="247.2"
           width="395.51999"
           version="1.1"
           id="svg9">
          <g
             id="g1">
            <svg
               version="1.1"
               id="svg1"
               width="100%"
               height="100%" />
          </g>
          <g
             id="g9">
            <svg
               viewBox="0 0 395.52 247.2"
               height="247.2"
               width="395.51999"
               version="1.1"
               id="svg8">
              <g
                 transform="translate(75.54432,61.321902)"
                 id="g7">
                <svg
                   viewBox="0 0 244.43136 124.5562"
                   height="124.5562"
                   width="244.43137"
                   version="1.1"
                   id="svg7">
                  <g
                     id="g6">
                    <svg
                       viewBox="0 0 244.43136 124.5562"
                       height="124.5562"
                       width="244.43137"
                       version="1.1"
                       id="svg6">
                      <g
                         id="g5">
                        <svg
                           viewBox="0 0 244.43136 124.5562"
                           height="124.5562"
                           width="244.43137"
                           version="1.1"
                           id="svg5">
                          <g
                             id="g4">
                            <svg
                               viewBox="0 0 244.43136 124.5562"
                               height="124.5562"
                               width="244.43137"
                               version="1.1"
                               id="svg4">
                              <g
                                 id="textblocktransform">
                                <svg
                                   viewBox="0 0 244.43136 124.5562"
                                   height="124.5562"
                                   width="244.43137"
                                   id="textblock"
                                   version="1.1">
                                <g
                                   id="g3">
                                <svg
                                   viewBox="0 0 244.43136 124.5562"
                                   height="124.5562"
                                   width="244.43137"
                                   version="1.1"
                                   id="svg3">
                                <g
                                   id="g2">
                                <svg
                                   width="244.43137"
                                   viewBox="0.42 -31.67 83.39 42.5"
                                   height="124.5562"
                                   data-palette-color="#ffffff"
                                   version="1.1"
                                   id="svg2">
                                <path
                                   d="m 15.14,-8.26 -4.2,9.3 -10.52,-21.87 h 4.27 l 4.2,9.02 q 0.59,1.29 1.13,2.5 0.54,1.22 1.06,3.06 v 0 q 0.55,-1.81 1.12,-3.06 0.58,-1.25 1.1,-2.5 v 0 l 4.2,-10 4.17,10 q 0.52,1.29 1.07,2.5 0.56,1.22 1.08,3.06 v 0 q 0.52,-1.84 1.08,-3.07 0.55,-1.24 1.14,-2.49 v 0 l 4.27,-9.02 h 4 L 23.78,1.04 19.55,-8.26 q -0.56,-1.25 -1.1,-2.49 -0.53,-1.23 -1.09,-2.97 v 0 q -0.52,1.74 -1.08,2.97 -0.55,1.24 -1.14,2.49 z M 57.25,0 h -18.4 l 12.54,-18.65 q 0.86,-1.32 1.19,-2.29 0.33,-0.97 0.33,-1.8 v 0 q 0,-2.26 -1.59,-3.82 -1.6,-1.57 -3.89,-1.57 v 0 q -2.29,0 -3.87,1.57 -1.58,1.56 -1.58,3.82 v 0 q 0,2.5 2.11,4.2 v 0 h -4.75 q -1.11,-2.12 -1.11,-4.2 v 0 q 0,-2.54 1.25,-4.55 1.25,-2.02 3.35,-3.2 2.1,-1.18 4.63,-1.18 v 0 q 2.54,0 4.62,1.18 2.08,1.18 3.33,3.2 1.25,2.01 1.25,4.55 v 0 q 0,1.49 -0.48,2.93 -0.49,1.44 -1.7,3.18 v 0 l -9.03,13.09 h 11.8 z m 15.28,10.83 v 0 q -2.4,0 -4.36,-0.69 -1.96,-0.7 -3.49,-1.91 v 0 l 1.04,-4.24 q 1.05,1.5 2.78,2.43 1.74,0.94 4,0.94 v 0 q 3.5,0 5.67,-2.12 2.17,-2.11 2.17,-5.45 v 0 -2.53 q -1.39,1.39 -3.28,2.2 -1.89,0.82 -4.04,0.82 v 0 q -2.85,0 -5.21,-1.44 -2.36,-1.44 -3.77,-3.87 -1.41,-2.44 -1.41,-5.39 v 0 q 0,-2.95 1.41,-5.38 1.41,-2.43 3.77,-3.87 2.36,-1.44 5.21,-1.44 v 0 q 2.15,0 4.04,0.8 1.89,0.8 3.28,2.22 v 0 -2.74 h 3.47 V 0 q 0,3.4 -1.58,5.83 -1.58,2.43 -4.14,3.72 -2.57,1.28 -5.56,1.28 z M 73.5,-3.13 v 0 q 1.98,0 3.6,-0.98 1.61,-0.99 2.57,-2.64 0.95,-1.65 0.95,-3.67 v 0 q 0,-2.01 -0.95,-3.66 -0.96,-1.65 -2.57,-2.64 -1.62,-0.99 -3.6,-0.99 v 0 q -1.98,0 -3.59,0.99 -1.62,0.99 -2.57,2.64 -0.96,1.65 -0.96,3.66 v 0 q 0,2.02 0.96,3.67 0.95,1.65 2.57,2.64 1.61,0.98 3.59,0.98 z"
                                   opacity="1"
                                   fill="#000000"
                                   class="wordmark-text-0"
                                   data-fill-palette-color="primary"
                                   id="text-0" />
                                </svg>
                                </g>
                                </svg>
                                </g>
                                </svg>
                              </g>
                            </svg>
                          </g>
                        </svg>
                      </g>
                    </svg>
                  </g>
                </svg>
              </g>
              <g
                 id="g8">
                <path
                   d="M 0,123.6 C 0,55.338 55.338,0 123.6,0 c 39.157,0 74.06,18.208 96.706,46.62 h -7.293 C 191.377,21.512 159.345,5.617 123.6,5.616 58.439,5.616 5.616,58.439 5.616,123.6 c 0,65.161 52.823,117.984 117.984,117.984 20.23483,0 39.28006,-5.09393 55.92325,-14.06972 C 192.27957,220.6347 203.6248,211.47469 213.013,200.58 h 7.293 C 197.66,228.991 162.756,247.2 123.6,247.2 55.338,247.2 0,191.862 0,123.6 Z"
                   fill="#000000"
                   stroke="transparent"
                   data-fill-palette-color="tertiary"
                   id="path7"
                   style="stroke-width:275.93502737;stroke-dasharray:none"
                   sodipodi:nodetypes="sscccsssccss" />
              </g>
            </svg>
          </g>
          <defs
             id="defs9" />
        </svg>
        <rect
           width="395.51999"
           height="247.2"
           fill="none"
           stroke="none"
           visibility="hidden"
           id="rect9"
           x="0"
           y="0" />
      </g>
    </svg>
  </g>
</svg>
