<svg xmlns="http://www.w3.org/2000/svg" version="1.1" xmlnsXlink="http://www.w3.org/1999/xlink" xmlnSvgjs="http://svgjs.dev/svgjs" width="1000" height="50" viewBox="0 0 1100 1500">
  <g transform="matrix(0.6666666666666666,0,0,0.6666666666666666,249.39393939393938,438.58569500674764)">
    <svg viewBox="0 0 396 247" data-background-color="#000000" preserveAspectRatio="xMidYMid meet" height="50" width="1500" xmlns="http://www.w3.org/2000/svg" xmlnsXlink="http://www.w3.org/1999/xlink">
      <g id="tight-bounds" transform="matrix(1,0,0,1,0.2400000000000091,-0.09999999999999432)">
          <g>
            <svg viewBox="0 0 395.52 247.2" height="50" width="50">
              <g transform="matrix(1,0,0,1,75.54432000000001,61.32190161532058)">
                <svg viewBox="0 0 244.43135999999996 124.55619676935883" height="50" width="50">
                  <g>
                      <g>
                        <svg viewBox="0 0 244.43135999999996 124.55619676935883" height="50" width="50">
                          <g>
                              <g id="textblocktransform">
                                <svg viewBox="0 0 244.43135999999996 124.55619676935883" height="50" width="50" id="textblock">
                                  <g>
                                      <g transform="matrix(1,0,0,1,0,0)">
                                        <svg width="50" viewBox="0.42 -31.67 83.39 42.5" height="50" data-palette-color="#ffffff">
                                          <path d="M15.14-8.26L10.94 1.04 0.42-20.83 4.69-20.83 8.89-11.81Q9.48-10.52 10.02-9.31 10.56-8.09 11.08-6.25L11.08-6.25Q11.63-8.06 12.2-9.31 12.78-10.56 13.3-11.81L13.3-11.81 17.5-21.81 21.67-11.81Q22.19-10.52 22.74-9.31 23.3-8.09 23.82-6.25L23.82-6.25Q24.34-8.09 24.9-9.32 25.45-10.56 26.04-11.81L26.04-11.81 30.31-20.83 34.31-20.83 23.78 1.04 19.55-8.26Q18.99-9.51 18.45-10.75 17.92-11.98 17.36-13.72L17.36-13.72Q16.84-11.98 16.28-10.75 15.73-9.51 15.14-8.26L15.14-8.26ZM57.25 0L38.85 0 51.39-18.65Q52.25-19.97 52.58-20.94 52.91-21.91 52.91-22.74L52.91-22.74Q52.91-25 51.32-26.56 49.72-28.13 47.43-28.13L47.43-28.13Q45.14-28.13 43.56-26.56 41.98-25 41.98-22.74L41.98-22.74Q41.98-20.24 44.09-18.54L44.09-18.54 39.34-18.54Q38.23-20.66 38.23-22.74L38.23-22.74Q38.23-25.28 39.48-27.29 40.73-29.31 42.83-30.49 44.93-31.67 47.46-31.67L47.46-31.67Q50-31.67 52.08-30.49 54.16-29.31 55.41-27.29 56.66-25.28 56.66-22.74L56.66-22.74Q56.66-21.25 56.18-19.81 55.69-18.37 54.48-16.63L54.48-16.63 45.45-3.54 57.25-3.54 57.25 0ZM72.53 10.83L72.53 10.83Q70.13 10.83 68.17 10.14 66.21 9.44 64.68 8.23L64.68 8.23 65.72 3.99Q66.77 5.49 68.5 6.42 70.24 7.36 72.5 7.36L72.5 7.36Q76 7.36 78.17 5.24 80.34 3.13 80.34-0.21L80.34-0.21 80.34-2.74Q78.95-1.35 77.06-0.54 75.17 0.28 73.02 0.28L73.02 0.28Q70.17 0.28 67.81-1.16 65.45-2.6 64.04-5.03 62.63-7.47 62.63-10.42L62.63-10.42Q62.63-13.37 64.04-15.8 65.45-18.23 67.81-19.67 70.17-21.11 73.02-21.11L73.02-21.11Q75.17-21.11 77.06-20.31 78.95-19.51 80.34-18.09L80.34-18.09 80.34-20.83 83.81-20.83 83.81 0Q83.81 3.4 82.23 5.83 80.65 8.26 78.09 9.55 75.52 10.83 72.53 10.83ZM73.5-3.13L73.5-3.13Q75.48-3.13 77.1-4.11 78.71-5.1 79.67-6.75 80.62-8.4 80.62-10.42L80.62-10.42Q80.62-12.43 79.67-14.08 78.71-15.73 77.1-16.72 75.48-17.71 73.5-17.71L73.5-17.71Q71.52-17.71 69.91-16.72 68.29-15.73 67.34-14.08 66.38-12.43 66.38-10.42L66.38-10.42Q66.38-8.4 67.34-6.75 68.29-5.1 69.91-4.11 71.52-3.13 73.5-3.13Z" opacity="1" transform="matrix(1,0,0,1,0,0)" fill="#ffffff" class="wordmark-text-0" data-fill-palette-color="primary" id="text-0"></path>
                                        </svg>
                                      </g>
                                  </g>
                                </svg>
                              </g>
                          </g>
                        </svg>
                      </g>
                  </g>
                </svg>
              </g>
              <g>
                <path d="M0 123.6c0-68.262 55.338-123.6 123.6-123.6 39.157 0 74.06 18.208 96.706 46.62l-7.293 0c-21.636-25.108-53.668-41.003-89.413-41.004-65.161 0-117.984 52.823-117.984 117.984 0 65.161 52.823 117.984 117.984 117.984 35.744 0 67.776-15.895 89.413-41.004h7.293c-22.646 28.411-57.55 46.62-96.706 46.62-68.262 0-123.6-55.338-123.6-123.6z" fill="#ffffff" stroke="transparent" data-fill-palette-color="tertiary"></path>
              </g>
            </svg>
          </g>
      </g>
    </svg>
  </g>
</svg>
