<svg xmlns="http://www.w3.org/2000/svg" width="139" height="79" fill="none" viewBox="0 0 121 163">
  <g class="Frame 1">
    <g class="SK">
      <mask id="a" width="110" height="99" x="5" y="29" fill="#000" class="a" maskUnits="userSpaceOnUse">
        <path fill="#fff" d="M5 29h110v99H5z"/>
        <path d="M11.722 68.4a28.15 28.15 0 0 1-2.1-4.6c-.467-1.6-.6-3.267-.4-5 .2-1.267.2-2.433 0-3.5-.267-2.933.2-5.5 1.4-7.7a34.948 34.948 0 0 1 4.5-6.3c1.733-1.933 3.733-3.433 6-4.5a90.982 90.982 0 0 1 6.9-3.1c.8-.267 1.666-.333 2.6-.2 1 .133 1.933.2 2.8.2-.134 3.8-.334 7.5-.6 11.1-.2 3.6-.267 7.233-.2 10.9.066 3.467.1 7 .1 10.6.066 3.533.266 7.067.6 10.6.533.2 1.066.3 1.6.3 4.533.467 8.333 1.9 11.4 4.3 3.066 2.333 5.466 5.567 7.2 9.7.533 1.067.933 2.2 1.2 3.4.266 1.133.333 2.333.2 3.6 0 .867-.034 1.733-.1 2.6 0 .8.033 1.567.1 2.3.466 2.933 0 5.467-1.4 7.6a39.843 39.843 0 0 1-4.6 6 18.112 18.112 0 0 1-6.2 4.5c-2.334 1.067-4.867 1.667-7.6 1.8-.467 0-.9-.033-1.3-.1-.4 0-.767.067-1.1.2-1 .467-1.934.333-2.8-.4-.267-.267-.634-.433-1.1-.5-.4 0-.767-.067-1.1-.2-4-1-7-3.2-9-6.6-.6-1.2-.934-2.633-1-4.3-.067-1.667.1-3.3.5-4.9.466-1.6 1.1-2.9 1.9-3.9.866-1 1.733-1.967 2.6-2.9.866-.933 1.966-1.567 3.3-1.9a31.39 31.39 0 0 1 2.1-.5 24.915 24.915 0 0 1 2.2-.3c.333 1.4.466 2.733.4 4a36.107 36.107 0 0 0 0 3.8c.133.467.233.9.3 1.3l.2 1.2v-6.8a117.8 117.8 0 0 0-.2-6.9c0-2.133-.067-4.233-.2-6.3a2872.51 2872.51 0 0 1-.2-6.6c-.734-.2-1.467-.367-2.2-.5l-2-.6a32.057 32.057 0 0 1-8.5-4c-2.534-1.733-4.6-4.033-6.2-6.9Zm22.7-34.7c2.6.2 4.733.9 6.4 2.1 2.333 1.533 4.233 3.367 5.7 5.5 1.533 2.067 2.2 4.567 2 7.5-.334 5.533-3.034 9.467-8.1 11.8-1.067.4-2.167.767-3.3 1.1-1.134.267-2.367.033-3.7-.7 0-4.467.033-8.967.1-13.5.066-4.533.366-9.133.9-13.8Zm-3.1 80h.6c-.067-.867-.167-1.7-.3-2.5-.067-.8-.167-1.6-.3-2.4v4.9Zm22.101 5.1c.667-.8.933-1.633.8-2.5a5.34 5.34 0 0 1 .3-2.3c.067-.133.067-.3 0-.5 0-.267-.067-.433-.2-.5-.733-1.2-1-2.367-.8-3.5.2-1.2.333-2.333.4-3.4.067-.933.2-1.867.4-2.8.267-1 .467-2.033.6-3.1-.467-.2-.7-.567-.7-1.1 0-.533.033-1.067.1-1.6.2-3 .4-5.9.6-8.7.067-4.733.133-9.4.2-14l.2-14c.067-2.8.2-5.567.4-8.3.2-2.733.333-5.5.4-8.3 0-.933-.033-1.867-.1-2.8 0-1-.033-1.967-.1-2.9v-1.2c.067-.467.133-.967.2-1.5h14.5l5.4-.2c1.8 0 2.5.767 2.1 2.3a6.202 6.202 0 0 0-.2 1.5c.067.4.133.867.2 1.4.067.867.067 1.767 0 2.7v2.8c-.133 1.933-.267 3.9-.4 5.9-.133 2-.233 4.033-.3 6.1a44.349 44.349 0 0 1-.3 3.1c-.133 1-.1 2.033.1 3.1.133.333.1.733-.1 1.2-.2.4-.3.8-.3 1.2-.133.8 0 1.567.4 2.3 1.333-3.333 3.2-6.1 5.6-8.3a55.882 55.882 0 0 1 7.9-6.2c3-1.933 6.133-3.133 9.4-3.6 3.333-.533 6.633-.967 9.9-1.3.133.333.233 1.8.3 4.4.133 2.533.2 5.833.2 9.9.067 4 .1 8.4.1 13.2v14.3c0 4.733-.033 9.133-.1 13.2s-.133 7.4-.2 10c0 2.6-.033 4.1-.1 4.5h-5.1a40.35 40.35 0 0 1-4.9-.1c-.467-.133-1.067-.3-1.8-.5-.667-.2-1.1-.7-1.3-1.5-.133-.533-.4-.9-.8-1.1a5.346 5.346 0 0 0-1.1-.3c-1.8-.333-3.367-1-4.7-2a54.947 54.947 0 0 0-3.9-3 84.017 84.017 0 0 1-2.5-2.2c-.8-.733-1.567-1.433-2.3-2.1a20.837 20.837 0 0 1-2.7-3.8c-.667-1.4-1.3-2.833-1.9-4.3a2.55 2.55 0 0 0-.3-.6c-.067-.267-.267-.533-.6-.8-.067 3.667-.167 7.3-.3 10.9-.067 3.6-.167 7.167-.3 10.7-.067.867-.267 1.433-.6 1.7-.333.333-.9.567-1.7.7h-1.9c-.6.067-1.233.067-1.9 0-.4-.133-.833-.3-1.3-.5a46.631 46.631 0 0 0-1.5-.4c-.467.667-.967.967-1.5.9-.533 0-.967-.3-1.3-.9-1.867.467-3.667.7-5.4.7a67.289 67.289 0 0 1-5.2 0c0-.4-.033-.833-.1-1.3-.067-.4-.033-.633.1-.7Z"/>
      </mask>
      <path fill="#fff" d="m11.722 68.4 3.492-1.95-.005-.009-.005-.01-3.482 1.969Zm-2.1-4.6-3.84 1.12.028.098.034.096L9.62 63.8Zm-.4-5-3.952-.624-.013.083-.01.083 3.974.458Zm0-3.5-3.984.362.017.189.035.186 3.931-.737Zm1.4-7.7L7.13 45.649l-.01.018-.01.018 3.51 1.915Zm4.5-6.3 2.978 2.67-2.979-2.67Zm6-4.5 1.703 3.62.043-.021.042-.021-1.788-3.578Zm6.9-3.1-1.265-3.795-.112.037-.11.044 1.486 3.714Zm2.6-.2-.566 3.96.018.002.019.003.529-3.965Zm2.8.2 3.997.14.145-4.14h-4.142v4Zm-.6 11.1-3.99-.295-.002.036-.002.037 3.994.222Zm-.2 10.9-4 .073v.004l4-.077Zm.1 10.6h-4v.076l4-.076Zm.6 10.6-3.983.376.235 2.49 2.343.88 1.404-3.746Zm1.6.3.41-3.979-.205-.021h-.206v4Zm11.4 4.3-2.466 3.15.022.017.021.016 2.422-3.183Zm7.2 9.7-3.69 1.547.052.123.06.119 3.578-1.789Zm1.2 3.4-3.905.868.005.024.006.024 3.893-.916Zm.2 3.6-3.978-.419-.023.21v.209h4Zm-.1 2.6-3.989-.307-.011.153v.154h4Zm.1 2.3-3.984.362.012.134.021.132 3.95-.628Zm-1.4 7.6-3.345-2.195-.024.037-.023.038 3.392 2.12Zm-4.6 6-2.932-2.722-.023.026-.024.026 2.979 2.67Zm-6.2 4.5-1.625-3.655-.02.008-.019.009 1.663 3.638Zm-7.6 1.8v4h.097l.097-.005-.195-3.995Zm-1.3-.1.657-3.946-.326-.054h-.331v4Zm-1.1.2-1.486-3.714-.104.042-.102.047 1.691 3.625Zm-2.8-.4-2.829 2.828.118.118.127.108 2.584-3.054Zm-1.1-.5.565-3.96-.281-.04h-.285v4Zm-1.1-.2 1.485-3.714-.252-.101-.263-.066-.97 3.881Zm-9-6.6-3.578 1.789.06.122.07.117 3.447-2.028Zm-1-4.3-3.997.16 3.996-.16Zm.5-4.9-3.84-1.12-.022.075-.02.075 3.881.97Zm1.9-3.9-3.023-2.62-.052.06-.049.061 3.123 2.499Zm5.9-4.8.97 3.881.04-.011.042-.011-1.053-3.859Zm2.1-.5-.716-3.936-.035.007-.034.007.785 3.922Zm2.2-.3 3.89-.927-.802-3.37-3.45.313.361 3.984Zm.4 4-3.995-.21 3.994.21Zm0 3.8-3.995.21.024.453.124.436 3.846-1.099Zm.3 1.3-3.946.658 3.945-.658Zm.2 1.2-3.946.658L35.22 107h-4Zm-.2-13.7h-4v.118l.006.117 3.994-.235Zm-.2-6.3-3.999.125.003.066.004.066L30.822 87Zm-.2-6.6 3.998-.118-.087-2.961-2.859-.78-1.052 3.859Zm-2.2-.5-1.15 3.831.214.065.22.04.716-3.936Zm-2-.6-1.165 3.827.008.002.007.002 1.15-3.831Zm-8.5-4-2.26 3.301.02.014.02.013 2.22-3.328Zm16.5-41.6.306-3.988-3.843-.296-.438 3.83 3.975.454Zm6.4 2.1-2.338 3.246.07.05.07.047 2.197-3.343Zm5.7 5.5-3.297 2.266.041.06.043.057 3.213-2.383Zm2 7.5-3.991-.272-.001.016-.001.016 3.992.24Zm-8.1 11.8 1.404 3.745.136-.05.133-.062-1.673-3.633Zm-3.3 1.1.916 3.894.107-.025.105-.032-1.129-3.837Zm-3.7-.7h-4v2.365l2.072 1.14L33.422 61Zm.1-13.5-4-.059 4 .059Zm-2.2 66.2h-4v4h4v-4Zm.6 0v4h4.319l-.331-4.307-3.988.307Zm-.3-2.5-3.987.332.014.164.027.162 3.946-.658Zm-.3-2.4 3.945-.658-7.946.658h4ZM15.204 66.432a24.162 24.162 0 0 1-1.805-3.946l-7.555 2.628a32.148 32.148 0 0 0 2.395 5.254l6.965-3.936ZM13.46 62.68c-.31-1.064-.408-2.193-.266-3.422l-7.947-.916c-.258 2.237-.09 4.442.533 6.578l7.68-2.24Zm-.289-3.256c.26-1.638.279-3.272-.019-4.861L5.29 56.037c.102.544.122 1.244-.02 2.14l7.902 1.247Zm.033-4.486c-.208-2.286.17-4.033.928-5.423l-7.023-3.83c-1.642 3.01-2.198 6.396-1.872 9.977l7.967-.724Zm.908-5.387a30.941 30.941 0 0 1 3.987-5.58l-5.957-5.341a38.95 38.95 0 0 0-5.013 7.019l6.983 3.902Zm3.987-5.58c1.39-1.55 2.96-2.721 4.725-3.552l-3.407-7.238c-2.768 1.303-5.197 3.132-7.275 5.449l5.957 5.34Zm4.81-3.593a86.97 86.97 0 0 1 6.597-2.964l-2.971-7.428a94.956 94.956 0 0 0-7.203 3.236l3.577 7.156Zm6.376-2.883c.145-.048.378-.091.77-.035l1.131-7.92c-1.475-.21-2.975-.12-4.43.365l2.53 7.59Zm.807-.03a25.25 25.25 0 0 0 3.329.235v-8c-.664 0-1.42-.051-2.272-.165l-1.057 7.93Zm-.67-3.905c-.13 3.75-.328 7.399-.59 10.944l7.978.592c.27-3.655.473-7.407.608-11.256l-7.995-.28Zm-.595 11.018c-.206 3.7-.274 7.431-.206 11.195l7.999-.146c-.065-3.57 0-7.105.194-10.605l-7.987-.444Zm-.206 11.199c.066 3.44.1 6.948.1 10.523h8c0-3.625-.034-7.184-.101-10.677l-7.999.154Zm.1 10.599a145.2 145.2 0 0 0 .617 10.9l7.965-.752a137.115 137.115 0 0 1-.583-10.3l-7.999.151Zm3.195 14.27a8.55 8.55 0 0 0 3.005.554v-8a.555.555 0 0 1-.196-.045l-2.809 7.49Zm2.595.533c3.913.403 6.966 1.61 9.344 3.471l4.93-6.3c-3.754-2.939-8.302-4.599-13.455-5.129l-.82 7.958Zm9.387 3.504c2.423 1.844 4.427 4.471 5.934 8.064l7.377-3.094c-1.96-4.674-4.756-8.513-8.466-11.336l-4.845 6.366Zm6.045 8.306c.382.765.675 1.588.873 2.479l7.81-1.736a18.703 18.703 0 0 0-1.528-4.32l-7.155 3.577Zm.884 2.527c.154.657.206 1.403.115 2.265l7.957.838c.175-1.672.094-3.326-.285-4.935l-7.787 1.832Zm.093 2.684c0 .764-.029 1.528-.088 2.293l7.977.614c.074-.969.111-1.938.111-2.907h-8Zm-.1 2.6c0 .911.038 1.799.117 2.662l7.967-.724a21.409 21.409 0 0 1-.084-1.938h-8Zm.15 2.928c.338 2.122-.029 3.612-.794 4.777l6.689 4.39c2.035-3.101 2.602-6.678 2.006-10.423l-7.9 1.256Zm-.841 4.852a35.778 35.778 0 0 1-4.14 5.398l5.863 5.444a43.807 43.807 0 0 0 5.06-6.602l-6.783-4.24Zm-4.187 5.45a14.104 14.104 0 0 1-4.846 3.515l3.249 7.31a22.094 22.094 0 0 0 7.554-5.485l-5.957-5.34Zm-4.885 3.532c-1.84.842-3.871 1.333-6.131 1.443l.39 7.99c3.206-.156 6.242-.865 9.068-2.157l-3.327-7.276ZM35.121 119c-.278 0-.489-.02-.642-.046l-1.315 7.892a12 12 0 0 0 1.957.154v-8Zm-1.3-.1c-.85 0-1.728.143-2.585.486l2.971 7.428c-.19.076-.335.086-.386.086v-8Zm-2.791.575c.081-.038.381-.146.807-.085.418.06.646.237.668.256l-5.167 6.108c.89.752 2.017 1.363 3.368 1.556 1.36.194 2.626-.081 3.707-.585l-3.383-7.25Zm1.72.397c-1.018-1.018-2.257-1.474-3.363-1.632l-1.131 7.92c-.173-.025-.679-.147-1.163-.632l5.657-5.656Zm-3.928-1.672c.05 0 .195.01.385.086l-2.971 7.428a6.927 6.927 0 0 0 2.585.486v-8Zm-.13-.081c-3.012-.753-5.094-2.318-6.523-4.747l-6.895 4.056c2.57 4.371 6.49 7.206 11.477 8.453l1.94-7.762Zm-6.393-4.508c-.292-.585-.531-1.437-.58-2.671l-7.994.32c.084 2.099.511 4.114 1.419 5.929l7.155-3.578Zm-.58-2.671a13.256 13.256 0 0 1 .383-3.77l-7.761-1.94a21.255 21.255 0 0 0-.616 6.03l7.993-.32Zm.342-3.62c.363-1.242.793-2.032 1.184-2.521l-6.247-4.998c-1.209 1.511-2.046 3.321-2.617 5.279l7.68 2.24Zm1.083-2.4c.838-.967 1.674-1.9 2.509-2.798l-5.863-5.444c-.899.968-1.796 1.97-2.691 3.002l6.045 5.24Zm2.509-2.798c.297-.32.695-.581 1.339-.741l-1.94-7.762c-2.024.506-3.825 1.513-5.262 3.06l5.863 5.443Zm1.421-.763a27.585 27.585 0 0 1 1.832-.437l-1.569-7.844a35.57 35.57 0 0 0-2.368.563l2.105 7.718Zm1.763-.424a20.724 20.724 0 0 1 1.847-.251l-.725-7.968a28.82 28.82 0 0 0-2.553.349l1.431 7.87Zm-2.407-3.309c.257 1.078.341 2.026.297 2.864l7.989.42c.09-1.696-.093-3.414-.503-5.136l-7.783 1.852Zm.297 2.864a40.137 40.137 0 0 0 0 4.22l7.989-.42a32.131 32.131 0 0 1 0-3.38l-7.989-.42Zm.148 5.109c.1.349.163.633.2.859l7.892-1.316a15.9 15.9 0 0 0-.4-1.741l-7.692 2.198Zm.2.859c.068.4.134.8.2 1.2l7.892-1.316-.2-1.2-7.891 1.316Zm8.146.542v-6.8h-8v6.8h8Zm0-6.8c0-2.41-.068-4.788-.206-7.135l-7.987.47a113.5 113.5 0 0 1 .194 6.665h8Zm-.2-6.9c0-2.217-.069-4.403-.208-6.557l-7.983.514c.127 1.979.192 3.993.192 6.043h8Zm-.202-6.425c-.066-2.13-.133-4.328-.2-6.593l-7.996.236c.067 2.269.134 4.471.2 6.607l7.996-.25Zm-3.145-10.334a30.14 30.14 0 0 0-2.537-.576l-1.431 7.87a22.44 22.44 0 0 1 1.863.424l2.105-7.718Zm-2.103-.472-2-.6-2.299 7.662 2 .6 2.299-7.662Zm-1.985-.596a28.058 28.058 0 0 1-7.446-3.501l-4.437 6.656a36.058 36.058 0 0 0 9.554 4.499l2.33-7.654ZM20.18 72c-1.988-1.36-3.646-3.183-4.966-5.548L8.23 70.35c1.88 3.368 4.355 6.145 7.434 8.251L20.18 72Zm13.935-34.31c2.063.158 3.44.688 4.37 1.357l4.674-6.492c-2.404-1.73-5.294-2.6-8.43-2.842l-.614 7.976Zm4.51 1.454c1.935 1.271 3.45 2.749 4.6 4.423l6.593-4.532c-1.783-2.593-4.068-4.782-6.8-6.577l-4.393 6.686Zm4.684 4.54c.886 1.194 1.367 2.718 1.222 4.845l7.981.544c.255-3.74-.597-7.216-2.778-10.155l-6.425 4.766Zm1.22 4.877c-.13 2.16-.704 3.8-1.58 5.076-.877 1.278-2.21 2.414-4.2 3.33l3.346 7.267c3.076-1.417 5.627-3.414 7.45-6.07 1.823-2.656 2.766-5.75 2.97-9.122l-7.986-.481Zm-5.512 8.295c-.973.364-1.98.7-3.024 1.008l2.257 7.674a51.852 51.852 0 0 0 3.576-1.192l-2.809-7.49Zm-2.812.951c.02-.004-.005.01-.115-.011-.125-.024-.368-.095-.74-.3l-3.856 7.01c1.928 1.06 4.182 1.644 6.544 1.089l-1.833-7.788ZM37.422 61c0-4.447.033-8.927.1-13.441l-8-.118c-.067 4.553-.1 9.072-.1 13.559h8Zm.1-13.441c.064-4.397.355-8.865.874-13.405l-7.949-.908a143.58 143.58 0 0 0-.925 14.195l8 .118Zm-6.2 70.141h.6v-8h-.6v8Zm4.588-4.307a32.57 32.57 0 0 0-.343-2.851l-7.891 1.316c.113.675.199 1.391.257 2.149l7.977-.614Zm-.302-2.525a33.56 33.56 0 0 0-.34-2.726l-7.892 1.316c.115.693.202 1.384.26 2.074l7.972-.664Zm-8.286-2.068v4.9h8v-4.9h-8Zm26.101 10 1.789 3.578.748-.374.536-.643-3.073-2.561Zm.8-2.5-3.986.332.011.139.022.137 3.953-.608Zm.3-2.3-3.578-1.789-.102.206-.08.216 3.76 1.367Zm0-.5h-4v.649l.205.616 3.795-1.265Zm-.2-.5-3.413 2.086.598.979 1.026.513L54.323 113Zm-.8-3.5 3.94.695.002-.019.004-.018-3.946-.658Zm.4-3.4-3.99-.285-.001.018-.001.017 3.992.25Zm.4-2.8-3.865-1.031-.025.096-.021.097 3.911.838Zm.6-3.1 3.97.496.373-2.987-2.767-1.186-1.576 3.677Zm-.6-2.7 3.97.496.014-.115.007-.115-3.991-.266Zm.6-8.7 3.99.285.008-.114.002-.115-4-.056Zm.2-14 4 .058-4-.058Zm.2-14-3.999-.095v.038l3.999.057Zm.8-16.6 3.999.095.001-.047V44.2h-4Zm-.1-2.8h-4v.143l.01.142 3.99-.285Zm-.1-2.9h-4v.143l.01.142 3.99-.285Zm0-1.2-3.96-.566-.04.282v.284h4Zm.2-1.5v-4h-3.531l-.438 3.504 3.969.496Zm14.5 0v4h.074l.074-.003-.148-3.997Zm5.4-.2v-4h-.074l-.074.003.148 3.997Zm2.1 2.3-3.87-1.01-.006.02-.004.02 3.88.97Zm-.2 1.5h-4v.331l.055.327 3.945-.658Zm.2 1.4 3.988-.307-.007-.095-.012-.094-3.969.496Zm0 2.7-3.99-.285-.01.142v.143h4Zm0 2.8 3.99.275.01-.137V46.3h-4Zm-.4 5.9 3.991.266-3.991-.266Zm-.3 6.1 3.992.25.004-.06.002-.061-3.998-.129Zm-.3 3.1 3.965.529-3.965-.529Zm.1 3.1-3.931.737.072.385.145.364 3.714-1.486Zm-.1 1.2 3.578 1.789.052-.105.047-.108-3.677-1.576Zm-.3 1.2 3.946.658.054-.327V66.9h-4Zm.4 2.3-3.511 1.915 4.069 7.46 3.156-7.89-3.714-1.485Zm5.6-8.3 2.703 2.949.022-.02.022-.02-2.747-2.909Zm7.9-6.2-2.167-3.362-.008.005-.008.005 2.183 3.352Zm9.4-3.6.566 3.96.033-.005.033-.005-.632-3.95Zm9.9-1.3 3.714-1.485-1.12-2.8-3 .306.406 3.979Zm.3 4.4-3.999.102.002.054.003.054 3.994-.21Zm.2 9.9h-4v.033l.001.034 3.999-.067Zm0 40.7 4 .066-4-.066Zm-.2 10-3.999-.103-.001.052v.051h4Zm-.1 4.5v4h3.389l.557-3.342-3.946-.658Zm-5.1 0v-4h-.083l-.083.003.166 3.997Zm-4.9-.1-1.099 3.846.383.11.397.031.319-3.987Zm-1.8-.5-1.15 3.831.049.015.049.013 1.052-3.859Zm-1.3-1.5 3.881-.97-3.881.97Zm-.8-1.1 1.789-3.578-.149-.074-.154-.062-1.486 3.714Zm-1.1-.3-.728 3.933.035.007.035.006.658-3.946Zm-4.7-2-2.576 3.06.086.072.09.068 2.4-3.2Zm-3.9-3-2.584 3.054.14.118.15.105 2.294-3.277Zm-2.5-2.2-2.703 2.949 2.703-2.949Zm-2.3-2.1-2.99 2.657.142.16.157.143 2.691-2.96Zm-2.7-3.8-3.611 1.72.05.105.056.103 3.505-1.928Zm-1.9-4.3-3.795 1.265.042.126.05.124 3.703-1.515Zm-.3-.6-3.88.97.167.672.385.577 3.328-2.219Zm-.6-.8 2.499-3.124-6.35-5.08-.148 8.131 3.999.073Zm-.3 10.9-3.997-.148-.002.037v.037l3.999.074Zm-.3 10.7 3.988.307.006-.078.003-.078-3.997-.151Zm-.6 1.7-2.499-3.123-.173.138-.156.157 2.828 2.828Zm-1.7.7v4h.331l.327-.054-.658-3.946Zm-1.9 0v-4h-.221l-.22.024.441 3.976Zm-1.9 0-1.265 3.795.423.141.444.044.398-3.98Zm-1.3-.5 1.576-3.677-.233-.099-.244-.07-1.099 3.846Zm-1.5-.4.97-3.881-2.67-.667-1.577 2.254 3.277 2.294Zm-1.5.9.496-3.969-.247-.031h-.249v4Zm-1.3-.9 3.497-1.943-1.49-2.682-2.977.744.97 3.881Zm-5.4.7v-4h-.077l-.077.003.154 3.997Zm-5.2 0h-4v3.849l3.846.148.154-3.997Zm-.1-1.3 3.96-.566-.007-.046-.007-.046-3.946.658Zm3.173 1.861c1.25-1.5 2.021-3.455 1.68-5.669l-7.906 1.216a1.244 1.244 0 0 1 .043-.552c.05-.158.102-.195.037-.117l6.146 5.122Zm1.713-5.393a1.36 1.36 0 0 1 .073-.601l-7.518-2.734a9.35 9.35 0 0 0-.527 3.999l7.972-.664Zm-.108-.179c.708-1.417.478-2.769.217-3.554l-7.59 2.53a3.377 3.377 0 0 1 .217-2.554l7.156 3.578Zm.422-2.289c0-.551-.093-2.918-2.411-4.078l-3.578 7.156a3.69 3.69 0 0 1-1.775-1.917 3.154 3.154 0 0 1-.236-1.161h8Zm-.787-2.586c-.18-.294-.242-.485-.264-.58a.323.323 0 0 1-.01-.139l-7.878-1.39c-.405 2.295.202 4.442 1.326 6.281l6.826-4.172Zm-.267-.756a37.2 37.2 0 0 0 .446-3.808l-7.984-.5a29.415 29.415 0 0 1-.353 2.992l7.89 1.316Zm.444-3.773c.053-.744.16-1.492.321-2.247l-7.822-1.676a24.236 24.236 0 0 0-.479 3.353l7.98.57Zm.275-2.054c.315-1.183.55-2.395.704-3.635l-7.938-.992a19.136 19.136 0 0 1-.496 2.565l7.73 2.062Zm-1.69-7.808c.38.163.89.5 1.275 1.105.375.59.45 1.151.45 1.472h-8c0 .854.191 1.865.8 2.822a5.126 5.126 0 0 0 2.324 1.955l3.152-7.354Zm1.725 2.577c0-.366.023-.734.07-1.104l-7.94-.992c-.086.697-.13 1.395-.13 2.096h8Zm.091-1.334c.2-2.994.4-5.888.599-8.681l-7.98-.57c-.2 2.807-.4 5.713-.601 8.719l7.982.532Zm.609-8.91c.066-4.732.133-9.399.2-13.998l-8-.116-.2 14.002 8 .112Zm.2-13.999.2-14-8-.114-.2 14 8 .114Zm.199-13.962c.065-2.736.195-5.437.39-8.103l-7.978-.584c-.205 2.8-.342 5.633-.41 8.497l7.998.19Zm.39-8.103c.205-2.8.342-5.633.41-8.497l-7.998-.19a164.866 164.866 0 0 1-.39 8.103l7.978.584Zm.411-8.592a43.3 43.3 0 0 0-.11-3.085l-7.98.57c.06.839.09 1.677.09 2.515h8Zm-.1-2.8c0-1.089-.036-2.15-.11-3.185l-7.98.57c.06.832.09 1.704.09 2.615h8Zm-.1-2.9v-1.2h-8v1.2h8Zm-.04-.634c.07-.493.14-1.017.21-1.57l-7.94-.992c-.063.513-.127.99-.19 1.43l7.92 1.132Zm-3.76 1.934h8.9v-8h-8.9v8Zm8.9 0h5.6v-8h-5.6v8Zm5.748-.003 5.4-.2-.296-7.994-5.4.2.296 7.994Zm5.252-.197c.19 0 .151.023-.029-.032a2.433 2.433 0 0 1-1.05-.696c-.976-1.069-.643-2.166-.691-1.982l7.74 2.02c.352-1.349.535-3.596-1.141-5.432-1.508-1.652-3.582-1.878-4.829-1.878v8Zm-1.78-2.67c-.2.796-.32 1.624-.32 2.47h8c0-.088.013-.26.08-.53l-7.76-1.94Zm-.265 3.128c.055.332.114.743.176 1.238l7.938-.992a39.002 39.002 0 0 0-.223-1.562l-7.891 1.316Zm.157 1.049c.05.655.052 1.357-.002 2.108l7.98.57a22.24 22.24 0 0 0-.002-3.292l-7.976.614Zm-.012 2.393v2.8h8v-2.8h-8Zm.01 2.525c-.134 1.936-.268 3.906-.401 5.909l7.982.532c.133-1.997.267-3.96.4-5.89l-7.982-.551Zm-.401 5.909a181.924 181.924 0 0 0-.307 6.237l7.996.258c.065-2.022.163-4.01.293-5.963l-7.982-.532Zm-.301 6.117a40.367 40.367 0 0 1-.273 2.82l7.93 1.058c.146-1.098.255-2.225.327-3.38l-7.984-.498Zm-.273 2.82a13.745 13.745 0 0 0 .134 4.366l7.862-1.474a5.754 5.754 0 0 1-.066-1.834l-7.93-1.058Zm.351 5.114c-.4-.998-.105-1.76-.063-1.86l7.354 3.15c.443-1.033.803-2.595.137-4.26l-7.428 2.97Zm.036-2.074a6.66 6.66 0 0 0-.722 2.989h8c0 .291-.078.5-.122.589l-7.156-3.578Zm-.668 2.331a7.48 7.48 0 0 0 .835 4.873l7.023-3.83c-.006-.011.015.027.029.105.014.08.009.142.005.168l-7.892-1.316Zm8.06 4.444c1.133-2.834 2.675-5.083 4.589-6.837L80.12 57.95c-2.886 2.646-5.078 5.93-6.61 9.763l7.427 2.972Zm4.633-6.878a51.882 51.882 0 0 1 7.336-5.756l-4.366-6.704a59.876 59.876 0 0 0-8.463 6.644l5.493 5.816Zm7.32-5.746c2.555-1.647 5.148-2.623 7.799-3.002l-1.132-7.92c-3.882.555-7.556 1.978-11 4.198l4.333 6.724Zm7.865-3.012c3.26-.522 6.485-.945 9.674-1.27l-.812-7.96c-3.344.342-6.72.785-10.126 1.33l1.264 7.9Zm5.554-3.764c-.115-.289-.155-.502-.158-.513-.009-.047-.008-.052-.001.004.014.11.035.316.057.645.045.65.085 1.601.117 2.88l7.998-.205a81.708 81.708 0 0 0-.133-3.22c-.028-.404-.061-.79-.105-1.129-.027-.203-.103-.824-.347-1.433l-7.428 2.97Zm.02 3.124c.128 2.435.194 5.657.194 9.69h8c0-4.1-.067-7.478-.205-10.11l-7.989.42Zm.195 9.757c.066 3.974.099 8.351.099 13.133h8c0-4.818-.033-9.24-.101-13.267l-7.998.134Zm.099 13.133v14.3h8V77.3h-8Zm0 14.3c0 4.715-.033 9.093-.099 13.134l7.999.132c.067-4.092.1-8.514.1-13.266h-8Zm-.099 13.134c-.067 4.061-.133 7.381-.2 9.963l7.998.206c.067-2.618.134-5.964.201-10.037l-7.999-.132Zm-.201 10.066c0 1.288-.008 2.28-.024 2.986-.008.355-.017.617-.027.798-.012.232-.018.202.005.058l7.892 1.316c.09-.543.113-1.336.128-1.994.018-.794.026-1.852.026-3.164h-8Zm3.9.5h-5.1v8h5.1v-8Zm-5.266.003c-1.432.06-2.903.031-4.415-.09l-.638 7.974c1.821.146 3.617.183 5.386.11l-.333-7.994Zm-3.635.051a149.19 149.19 0 0 0-1.847-.513l-2.104 7.718c.725.198 1.308.36 1.753.487l2.198-7.692Zm-1.75-.485c.354.106.742.332 1.049.686.284.328.367.612.383.675l-7.761 1.94c.467 1.871 1.742 3.675 4.03 4.361l2.3-7.662Zm1.432 1.361c-.346-1.383-1.212-2.868-2.892-3.708l-3.578 7.156a2.643 2.643 0 0 1-.946-.8 2.099 2.099 0 0 1-.345-.708l7.761-1.94Zm-3.195-3.844a9.287 9.287 0 0 0-1.928-.532l-1.316 7.892c.153.025.238.054.273.068l2.97-7.428Zm-1.858-.519c-1.254-.232-2.235-.672-3.028-1.267l-4.8 6.4c1.874 1.405 4.026 2.299 6.372 2.733l1.456-7.866ZM93.1 110.74a59.237 59.237 0 0 0-4.183-3.217l-4.588 6.554a51.023 51.023 0 0 1 3.618 2.783l5.153-6.12Zm-3.893-2.994a78.98 78.98 0 0 1-2.381-2.095l-5.406 5.898a87.11 87.11 0 0 0 2.62 2.305l5.167-6.108Zm-2.381-2.095a897.81 897.81 0 0 0-2.312-2.111l-5.382 5.92c.73.662 1.492 1.359 2.288 2.089l5.406-5.898Zm-2.013-1.808a16.814 16.814 0 0 1-2.185-3.071l-7.01 3.856a24.815 24.815 0 0 0 3.215 4.529l5.98-5.314Zm-2.079-2.863a79.703 79.703 0 0 1-1.809-4.095l-7.404 3.03a87.783 87.783 0 0 0 1.99 4.505l7.224-3.44Zm-1.716-3.845a6.519 6.519 0 0 0-.767-1.554l-6.656 4.438a1.51 1.51 0 0 1-.167-.354l7.59-2.53Zm-.214-.305c-.368-1.472-1.32-2.424-1.982-2.954l-4.998 6.247a1.762 1.762 0 0 1-.301-.323 2.886 2.886 0 0 1-.48-1.03l7.76-1.94Zm-8.48.097a584.769 584.769 0 0 1-.298 10.825l7.994.296c.135-3.626.235-7.284.302-10.975l-7.998-.146Zm-.3 10.899a553.779 553.779 0 0 1-.298 10.623l7.994.302c.135-3.56.235-7.152.302-10.777l-7.998-.148Zm-.29 10.467c-.016.225-.039.209.017.051.052-.147.265-.681.873-1.167l4.998 6.246c.942-.753 1.421-1.703 1.673-2.417.256-.725.367-1.457.416-2.099l-7.976-.614Zm.56-.821a2.03 2.03 0 0 1 .631-.446c.068-.028.033-.004-.16.028l1.316 7.892c1.093-.183 2.657-.604 3.87-1.818l-5.656-5.656Zm1.129-.472h-1.9v8h1.9v-8Zm-2.342.024a5.002 5.002 0 0 1-1.06-.004l-.796 7.96a13.07 13.07 0 0 0 2.74-.004l-.884-7.952Zm-.193.181a12.788 12.788 0 0 1-.99-.382l-3.15 7.354a20.91 20.91 0 0 0 1.61.618l2.53-7.59Zm-1.466-.551a51.408 51.408 0 0 0-1.629-.435l-1.94 7.762c.496.124.952.245 1.371.365l2.198-7.692Zm-5.876 1.152c-.03.043.112-.182.494-.411a2.817 2.817 0 0 1 1.78-.364l-.993 7.938c2.683.335 4.437-1.381 5.273-2.575l-6.554-4.588Zm1.777-.806c.537 0 1.091.167 1.552.486.416.289.6.591.645.671l-6.994 3.886c.804 1.446 2.384 2.957 4.797 2.957v-8Zm-2.27-.781c-1.584.396-3.057.581-4.43.581v8c2.094 0 4.22-.282 6.37-.819l-1.94-7.762Zm-4.584.584c-1.63.063-3.261.063-4.892 0l-.308 7.994a71.23 71.23 0 0 0 5.508 0l-.308-7.994Zm-1.046 3.997c0-.619-.051-1.244-.14-1.866l-7.92 1.132c.045.311.06.553.06.734h8Zm-.154-1.958c.001.01.012.074.017.179.005.097.01.301-.028.57a3.741 3.741 0 0 1-2.046 2.787l-3.578-7.156c-1.8.901-2.204 2.598-2.296 3.237a5.575 5.575 0 0 0 .04 1.699l7.89-1.316Z" mask="url(#a)"/>
    </g>
    <g class="Line 2" filter="url(#b)">
      <path fill="#fff" d="m69.195 82.272 7.833-7.756 7.755 7.832-7.832 7.756-7.756-7.832Zm41.777-1.146a1.35 1.35 0 1 1-.013 2.7l.013-2.7Zm-33.976-.166 33.976.166-.013 2.7-33.976-.166.013-2.7Z"/>
    </g>
    <path stroke="#fff" d="m35.499 30.027-2 37" class="Line 3"/>
    <g class="Line 4" filter="url(#c)">
      <path fill="#fff" d="m31.6 114 2.605-5.152-5.765.32L31.6 114Zm-1.5-17.972.751 13.507.999-.056-.75-13.507-1 .056Z"/>
    </g>
  </g>
  <defs>
    <filter id="b" width="51.12" height="23.588" x="65.195" y="74.516" class="b" color-interpolation-filters="sRGB" filterUnits="userSpaceOnUse">
      <feFlood flood-opacity="0" result="BackgroundImageFix"/>
      <feColorMatrix in="SourceAlpha" result="hardAlpha" values="0 0 0 0 0 0 0 0 0 0 0 0 0 0 0 0 0 0 127 0"/>
      <feOffset dy="4"/>
      <feGaussianBlur stdDeviation="2"/>
      <feComposite in2="hardAlpha" operator="out"/>
      <feColorMatrix values="0 0 0 0 0 0 0 0 0 0 0 0 0 0 0 0 0 0 0.25 0"/>
      <feBlend in2="BackgroundImageFix" result="effect1_dropShadow_2_22"/>
      <feBlend in="SourceGraphic" in2="effect1_dropShadow_2_22" result="shape"/>
    </filter>
    <filter id="c" width="13.765" height="26.028" x="24.44" y="95.972" class="c" color-interpolation-filters="sRGB" filterUnits="userSpaceOnUse">
      <feFlood flood-opacity="0" result="BackgroundImageFix"/>
      <feColorMatrix in="SourceAlpha" result="hardAlpha" values="0 0 0 0 0 0 0 0 0 0 0 0 0 0 0 0 0 0 127 0"/>
      <feOffset dy="4"/>
      <feGaussianBlur stdDeviation="2"/>
      <feComposite in2="hardAlpha" operator="out"/>
      <feColorMatrix values="0 0 0 0 0 0 0 0 0 0 0 0 0 0 0 0 0 0 0.25 0"/>
      <feBlend in2="BackgroundImageFix" result="effect1_dropShadow_2_22"/>
      <feBlend in="SourceGraphic" in2="effect1_dropShadow_2_22" result="shape"/>
    </filter>
  </defs>
</svg>
